<?xml version="1.0" encoding="UTF-8"?>
<svg xmlns:xlink="http://www.w3.org/1999/xlink" height="812px" version="1.1" viewBox="0 0 375 812"
    width="375px" xmlns="http://www.w3.org/2000/svg">
    <title>Group 27</title>
    <defs>
        <rect height="812" id="path-1" width="375" x="0" y="0"></rect>
        <polygon id="path-3"
            points="0.873125 0.3975 197.054375 0.3975 197.054375 73.7389 0.873125 73.7389"></polygon>
        <polygon id="path-5"
            points="0 0.429375 49.059 0.429375 49.059 233.210625 0 233.210625"></polygon>
    </defs>
    <g fill="none" fill-rule="evenodd" id="GoalOne" stroke="none" stroke-width="1">
        <g id="Group-27" transform="translate(0.000000, 0.000000)">
            <mask fill="white" id="mask-2">
                <use xlink:href="#path-1"></use>
            </mask>
            <use fill="#FFFFFF" id="Mask" xlink:href="#path-1"></use>
            <g mask="url(#mask-2)" opacity="0.131324405">
                <g transform="translate(-30.000000, 348.000000)">
                    <path
                        d="M339.307377,95.5 C339.307377,95.5 413.998444,105.59358 466.748184,130.264693 C466.748184,130.264693 488.708377,178.5 497.5,252.513336 L389.849778,303 L297.5,206.529385 C297.5,206.529385 330.515753,115.687161 339.307377,95.5"
                        fill="#3FAE2A" id="Fill-1"></path>
                    <path
                        d="M86.9278517,173 C86.9278517,173 121.824907,207.457917 160,245.224091 C160,245.224091 132.745456,306.333923 130.553854,378.558014 L37.8509411,383 C37.8509411,383 9.45376684,319.659881 12.7692681,257.453491 C12.7692681,257.453491 32.3813007,211.899903 86.9278517,173"
                        fill="#3FAE2A" id="Fill-3"></path>
                    <path
                        d="M360.621255,433 L432.5,504.023505 C432.5,504.023505 403.09761,549.522358 360.621255,582.806504 C360.621255,582.806504 282.214881,586.147913 229.919026,565.05991 C229.919026,565.05991 224.476217,520.67486 229.919026,470.720795 C229.919026,470.720795 333.388507,442.9871 360.621255,433"
                        fill="#3FAE2A" id="Fill-5"></path>
                    <g fill="none" id="Group-11" stroke-width="1"
                        transform="translate(108.500000, 0.000000)">
                        <mask fill="white" id="mask-4">
                            <use xlink:href="#path-3"></use>
                        </mask>
                        <g id="Clip-10"></g>
                        <path
                            d="M150.479375,36.1469 C150.479375,36.1469 69.685625,50.5214 27.104375,73.7389 L0.873125,61.0294 C51.423125,22.3459 119.316875,0.3864 187.548125,0.3864 C190.735625,0.3864 193.904375,0.4604 197.054375,0.5529 C165.329375,20.0519 150.479375,36.1469 150.479375,36.1469"
                            fill="#3FAE2A" id="Fill-9" mask="url(#mask-4)"></path>
                    </g>
                    <path
                        d="M531.432584,451.716869 C526.001873,455.47531 480.365169,486.515177 432.256554,503.213129 L361.994382,433.37343 L389.878277,304.744971 L494.597378,255.455159 C500.421348,260.859088 531.001873,290.029083 558.286517,329.558166 C557.574906,336.831966 551.432584,395.022366 531.432584,451.716869 L531.432584,451.716869 Z M431.189139,508 L432.368914,507.588628 C484.372659,489.806151 533.792135,455.138734 534.297753,454.783458 L534.840824,454.409484 L535.046816,453.773727 C556.713483,392.759821 562.368914,329.78255 562.425094,329.165493 L562.5,328.398845 L562.069288,327.763089 C531.507491,283.316244 496.67603,251.715416 496.320225,251.397538 L495.308989,250.5 L386.320225,301.790574 L357.5,434.757135 L431.189139,508 Z"
                        fill="#3FAE2A" id="Fill-12"></path>
                    <path
                        d="M360.074966,430.957116 L230.863272,468.447228 C197.141988,446.095552 140.520289,383.986746 134.170543,376.979599 C137.345416,308.294567 160.057969,252.331067 163.157697,245.024148 C224.250519,222.560058 288.574572,209.351398 297.610749,207.552772 L388.010091,302.242939 L360.074966,430.957116 Z M230.205754,473 L363.550419,434.32954 L392.5,300.950177 L299.019717,203 L297.930115,203.206093 C297.235025,203.355978 227.049667,216.958088 160.922136,241.370689 L160.114328,241.67046 L159.757389,242.476095 C159.494382,243.094372 133.28759,303.086045 130.037572,377.654084 L130,378.534661 L130.582373,379.171674 C131.202319,379.864895 193.516246,449.093262 229.435518,472.494136 L230.205754,473 Z"
                        fill="#3FAE2A" id="Fill-14"></path>
                    <path
                        d="M294.71194,203.446389 C285.516016,205.287746 221.574434,218.400438 160.735542,240.682713 L89.5979623,170.190372 C103.036722,122.780088 134.43744,78.9781182 137.633585,74.5700219 C177.501283,52.8271335 251.648098,38.6914661 259.031005,37.3150985 C289.254196,50.5393873 328.673312,89.1706783 335.23382,95.7363239 L294.71194,203.446389 Z M159.707542,245.5 L160.90376,245.035011 C226.377996,220.911379 295.889467,207.463895 296.599721,207.333698 L297.702485,207.110503 L340,94.6761488 L339.065455,93.7275711 C337.233746,91.8490153 293.777395,47.6750547 260.059005,33.2417943 L259.498278,33 L258.900169,33.1115974 C258.09646,33.2603939 177.557355,47.8982495 135.315913,71.1291028 L134.923404,71.333698 L134.661731,71.7056893 C134.287913,72.1520788 99.4293777,119.320569 85.3364363,170.246171 L85,171.436543 L159.707542,245.5 Z"
                        fill="#3FAE2A" id="Fill-18"></path>
                    <g fill="none" id="Group-22" stroke-width="1"
                        transform="translate(0.000000, 245.500000)">
                        <mask fill="white" id="mask-6">
                            <use xlink:href="#path-5"></use>
                        </mask>
                        <g id="Clip-21"></g>
                        <path
                            d="M45.034,233.210625 L49.059,232.048125 C48.6565,230.660625 39.3606667,197.641875 41.5456667,136.179375 L41.5648333,135.691875 L41.354,135.241875 C41.0665,134.604375 12.5656667,71.079375 15.8815,9.560625 L15.939,8.266875 L2.04316667,0.429375 L-0.00766666667,4.085625 L11.6265,10.648125 C8.84733333,69.991875 34.7606667,130.629375 37.3481667,136.535625 C35.2015,198.335625 44.6315,231.823125 45.034,233.210625"
                            fill="#3FAE2A" id="Fill-20" mask="url(#mask-6)"></path>
                    </g>
                </g>
            </g>
        </g>
    </g>
</svg>