<?xml version="1.0" encoding="UTF-8"?>
<svg width="26px" height="26px" viewBox="0 0 26 26" version="1.1"
    xmlns="http://www.w3.org/2000/svg">
    <title>circle-10</title>
    <g id="GoalOne" stroke="none" stroke-width="1" fill="none" fill-rule="evenodd">
        <g id="GoalOne-4.0" transform="translate(-319.000000, -53.000000)" fill-rule="nonzero">
            <g id="circle-10" transform="translate(319.000000, 53.000000)">
                <path
                    d="M12.9599989,0 C5.8136395,0 0,5.8136395 0,12.9599989 C0,20.1063583 5.8136395,25.9199978 12.9599989,25.9199978 C20.1063583,25.9199978 25.9199978,20.1063583 25.9199978,12.9599989 C25.9199978,5.8136395 20.1063583,0 12.9599989,0 Z M20.1938383,20.9563182 C19.4767183,18.8254784 17.4938385,17.2799985 15.1199987,17.2799985 L10.7999991,17.2799985 C8.42615927,17.2799985 6.44543945,18.8265584 5.72831951,20.9573982 C3.54347969,18.9799184 2.15999981,16.1319586 2.15999981,12.9599989 C2.15999981,7.0048794 7.0048794,2.15999981 12.9599989,2.15999981 C18.9151184,2.15999981 23.759998,7.0048794 23.759998,12.9599989 C23.759998,16.1308786 22.3775981,18.9788384 20.1938383,20.9563182 Z"
                    id="Shape" fill="#080808"></path>
                <path
                    d="M12.9599989,5.39999954 C10.5742791,5.39999954 8.63999926,7.33427937 8.63999926,9.71999916 L8.63999926,10.7999991 C8.63999926,13.1857189 10.5742791,15.1199987 12.9599989,15.1199987 C15.3457187,15.1199987 17.2799985,13.1857189 17.2799985,10.7999991 L17.2799985,9.71999916 C17.2799985,7.33427937 15.3457187,5.39999954 12.9599989,5.39999954 Z"
                    id="Path" fill="#000000"></path>
            </g>
        </g>
    </g>
</svg>